<svg xmlns="http://www.w3.org/2000/svg" xml:space="preserve" viewBox="0 0 420.827 420.827"><path d="M210.29 0C156 0 104.43 20.693 65.077 58.269 25.859 95.715 2.794 146.022.134 199.921a10.005 10.005 0 0 0 2.744 7.388 10.005 10.005 0 0 0 7.244 3.105h45.211a9.999 9.999 0 0 0 9.979-9.362c4.871-76.214 68.553-135.914 144.979-135.914 80.105 0 145.275 65.171 145.275 145.276S290.396 355.69 210.291 355.69c-18.109 0-35.772-3.287-52.501-9.771l17.366-15.425a10.003 10.003 0 0 0-3.375-16.989l-113-32.552a10.002 10.002 0 0 0-13.028 11.415L69.71 403.157a10 10 0 0 0 16.401 5.575l18.599-16.298c31.946 18.574 68.456 28.394 105.581 28.394 116.021 0 210.414-94.392 210.414-210.414C420.705 94.391 326.312 0 210.29 0z"/><path d="M195.112 237.9h118.5c2.757 0 5-2.242 5-5v-30c0-2.757-2.243-5-5-5h-83.5v-91c0-2.757-2.243-5-5-5h-30c-2.757 0-5 2.243-5 5v126c0 2.758 2.243 5 5 5z"/></svg>