<svg viewBox="0 0 72 72" xmlns="http://www.w3.org/2000/svg"><g fill="none" fill-rule="evenodd"><path d="m8 72h56a8 8 0 0 0 8-8v-56a8 8 0 0 0 -8-8h-56a8 8 0 0 0 -8 8v56a8 8 0 0 0 8 8z" fill="#007ebb"/><path d="m62 62h-10.684v-18.198c0-4.99-1.896-7.777-5.845-7.777-4.296 0-6.54 2.901-6.54 7.777v18.198h-10.299v-34.667h10.298v4.67s3.096-5.729 10.453-5.729c7.353 0 12.617 4.49 12.617 13.777zm-45.65-39.206c-3.508 0-6.35-2.864-6.35-6.397s2.842-6.397 6.35-6.397c3.507 0 6.347 2.864 6.347 6.397s-2.84 6.397-6.348 6.397zm-5.318 39.206h10.736v-34.667h-10.735v34.667z" fill="#fff"/></g></svg>