<svg xmlns="http://www.w3.org/2000/svg" viewBox="50 0 580 580">
  <path fill-rule="evenodd" d="M105 122.5v315c0 48.328 39.172 87.5 87.5 87.5h315c23.203 0 45.465-9.223 61.871-25.629S595 460.703 595 437.5v-315c0-23.203-9.223-45.465-25.629-61.871S530.703 35 507.5 35h-315c-48.328 0-87.5 39.172-87.5 87.5zM350 105c-96.582 0-175 78.418-175 175s78.418 175 175 175 175-78.418 175-175-78.418-175-175-175zm77.84 192.5H367.5v111.36c33.117-27.027 55.641-66.551 60.34-111.36zm-182.09 0h-34.668c6.012 48.117 36.48 88.672 78.539 108.83-24.465-30.293-40.328-67.812-43.871-108.83zm86.746 0h-51.59c4.27 40.73 23.285 77.105 51.59 103.7zm156.41 0h-25.918c-3.21 37.25-16.59 71.609-37.344 100.29 34.062-21.938 58.012-58.23 63.262-100.29zm-243.16-35c3.543-41.027 19.406-78.547 43.871-108.83-42.062 20.16-72.527 60.715-78.539 108.83zm86.746 0V158.8c-28.316 26.59-47.32 62.965-51.59 103.7zm35 0h60.34c-4.7-44.809-27.23-84.332-60.34-111.36zm121.41 0c-5.25-42.062-29.199-78.355-63.262-100.29 20.754 28.684 34.133 63.043 37.344 100.29z"/>
</svg>
